<?xml version="1.0" standalone="no"?>
<!DOCTYPE svg PUBLIC "-//W3C//DTD SVG 20010904//EN"
 "http://www.w3.org/TR/2001/REC-SVG-20010904/DTD/svg10.dtd">
<svg version="1.0" xmlns="http://www.w3.org/2000/svg"
 width="298.000000pt" height="298.000000pt" viewBox="0 0 298.000000 298.000000"
 preserveAspectRatio="xMidYMid meet">
<metadata>
Created by potrace 1.11, written by Peter Selinger 2001-2013
</metadata>
<g transform="translate(0.000000,298.000000) scale(0.100000,-0.100000)"
fill="#000000" stroke="none">
<path d="M110 2202 c-96 -43 -134 -187 -79 -298 43 -87 111 -112 184 -70 113
67 114 288 1 357 -31 19 -77 24 -106 11z"/>
<path d="M2762 2190 c-22 -14 -42 -39 -59 -76 -21 -48 -25 -66 -21 -119 7 -78
37 -135 87 -163 100 -56 205 35 206 178 0 150 -110 243 -213 180z"/>
<path d="M2050 1500 c-8 -5 -17 -7 -21 -4 -4 2 -29 0 -55 -5 -133 -25 -502
-35 -679 -18 -190 18 -227 19 -291 8 -166 -29 -259 -129 -259 -276 1 -93 27
-149 107 -229 153 -152 380 -221 728 -221 408 0 657 102 760 310 36 72 49 134
44 216 -5 103 -53 172 -140 208 -38 15 -175 23 -194 11z"/>
</g>
</svg>
